<svg width="150" height="150" viewBox="0 0 150 150" fill="none" xmlns="http://www.w3.org/2000/svg">
<path d="M150 75C150 116.421 116.421 150 75 150C33.5786 150 0 116.421 0 75C0 33.5786 33.5786 0 75 0C116.421 0 150 33.5786 150 75Z" fill="#FFF9E6"/>
<path d="M132.979 75.849L144.201 76.7164L143.965 79.763L135.198 79.0853L134.847 83.6223L132.392 83.4325L132.979 75.849Z" fill="#1D1D1D"/>
<path d="M142.5 90.2235L131.461 88.0302L132.056 85.0331L143.096 87.2264L142.5 90.2235Z" fill="#1D1D1D"/>
<path d="M136.633 97.7992C136.989 97.8898 137.304 97.852 137.577 97.686C137.849 97.5234 138.065 97.2081 138.225 96.74C138.327 96.4417 138.374 96.1849 138.366 95.9693C138.361 95.7584 138.313 95.5871 138.222 95.4556C138.132 95.324 138.009 95.2299 137.854 95.1731C137.728 95.1224 137.604 95.1053 137.482 95.1218C137.363 95.143 137.242 95.1983 137.118 95.2878C136.998 95.3785 136.874 95.5044 136.745 95.6657C136.617 95.827 136.483 96.0254 136.345 96.2607L135.859 97.0706C135.533 97.6175 135.196 98.0658 134.849 98.4156C134.501 98.7653 134.143 99.0263 133.774 99.1987C133.409 99.3722 133.034 99.4628 132.648 99.4704C132.261 99.4816 131.864 99.4197 131.457 99.2847C130.758 99.0421 130.224 98.6647 129.857 98.1522C129.49 97.6398 129.29 97.0179 129.257 96.2866C129.223 95.5587 129.36 94.744 129.667 93.8425C129.983 92.9166 130.396 92.1555 130.905 91.5589C131.414 90.9658 132.017 90.5756 132.716 90.3883C133.417 90.2056 134.214 90.2646 135.106 90.5653L134.169 93.3115C133.837 93.2176 133.535 93.2056 133.264 93.2755C132.992 93.3454 132.754 93.4926 132.55 93.7171C132.344 93.945 132.179 94.2428 132.053 94.6103C131.948 94.9189 131.898 95.1903 131.903 95.4243C131.908 95.6584 131.96 95.8523 132.059 96.0059C132.157 96.1596 132.293 96.2677 132.465 96.3304C132.629 96.3825 132.79 96.3773 132.947 96.3147C133.106 96.2567 133.273 96.1282 133.45 95.929C133.63 95.731 133.83 95.4491 134.052 95.0834L134.643 94.1005C135.169 93.2271 135.765 92.5999 136.429 92.2188C137.096 91.8424 137.845 91.7979 138.676 92.0854C139.353 92.3127 139.883 92.6948 140.265 93.2316C140.649 93.7732 140.873 94.4166 140.936 95.1621C140.997 95.911 140.885 96.7068 140.597 97.5494C140.303 98.4093 139.906 99.104 139.404 99.6334C138.902 100.163 138.331 100.508 137.691 100.669C137.054 100.835 136.386 100.801 135.688 100.566L136.633 97.7992Z" fill="#1D1D1D"/>
<path d="M135.679 103.275L137.831 104.472L133.074 113.02L130.923 111.823L132.569 108.865L124.885 104.589L126.349 101.957L134.033 106.233L135.679 103.275Z" fill="#1D1D1D"/>
<path d="M122.7 108.27L131.4 115.41L126.254 121.681L124.351 120.119L127.558 116.21L126.063 114.983L123.12 118.569L121.217 117.007L124.16 113.421L122.664 112.194L119.471 116.085L117.567 114.523L122.7 108.27Z" fill="#1D1D1D"/>
<path d="M115.79 131.115L108.586 122.467L110.546 120.835L117.455 122.776L117.506 122.733L113.721 118.19L116.069 116.234L123.273 124.882L121.279 126.543L114.435 124.576L114.367 124.633L118.138 129.16L115.79 131.115Z" fill="#1D1D1D"/>
<path d="M98.8071 140.112L94.2683 129.812L96.6018 128.784L102.708 132.555L102.768 132.528L100.384 127.117L103.18 125.885L107.719 136.184L105.345 137.23L99.308 133.453L99.2275 133.488L101.603 138.879L98.8071 140.112Z" fill="#1D1D1D"/>
<path d="M83.0794 138.156C82.8258 136.929 82.8505 135.844 83.1535 134.902C83.4573 133.964 83.9697 133.194 84.6909 132.592C85.4129 131.994 86.2726 131.592 87.2701 131.386C88.2747 131.179 89.2274 131.208 90.128 131.475C91.0257 131.746 91.8 132.252 92.4507 132.993C93.0985 133.738 93.5485 134.721 93.8005 135.941C94.0541 137.168 94.0308 138.25 93.7306 139.187C93.4277 140.129 92.917 140.899 92.1986 141.496C91.4774 142.098 90.6145 142.503 89.6098 142.71C88.6123 142.916 87.6633 142.886 86.7627 142.619C85.8628 142.356 85.0872 141.853 84.4357 141.108C83.785 140.367 83.3329 139.383 83.0794 138.156ZM86.1579 137.52C86.2943 138.18 86.4972 138.718 86.7664 139.134C87.0328 139.554 87.3605 139.845 87.7495 140.008C88.1358 140.175 88.5764 140.208 89.0716 140.105C89.5667 140.003 89.9603 139.798 90.2522 139.491C90.5413 139.188 90.7267 138.79 90.8084 138.298C90.8872 137.811 90.8584 137.237 90.722 136.577C90.5856 135.916 90.3842 135.376 90.1178 134.956C89.8485 134.54 89.5208 134.249 89.1346 134.082C88.7456 133.919 88.3035 133.889 87.8083 133.991C87.3131 134.093 86.921 134.296 86.6319 134.599C86.34 134.906 86.1546 135.304 86.0758 135.791C85.9941 136.283 86.0215 136.859 86.1579 137.52Z" fill="#1D1D1D"/>
<path d="M77.184 132.978L79.8028 144.417L76.4019 144.206L75.2932 137.2L75.2054 137.195L72.9571 143.994L70.2802 143.828L68.8877 136.782L68.7999 136.777L66.8354 143.615L63.4345 143.405L67.442 132.376L70.3602 132.556L71.8813 138.949L71.969 138.955L74.2658 132.798L77.184 132.978Z" fill="#1D1D1D"/>
<path d="M51.0871 133.541L51.8983 131.403L56.831 133.275L56.0198 135.413L51.0871 133.541Z" fill="#1D1D1D"/>
<path d="M46.7575 125.234L40.4737 134.572L37.9386 132.866L42.8478 125.571L39.0724 123.03L40.447 120.988L46.7575 125.234Z" fill="#1D1D1D"/>
<path d="M29.5211 126.395L36.8808 117.879L39.1927 119.877L31.833 128.393L29.5211 126.395Z" fill="#1D1D1D"/>
<path d="M25.9333 117.688C25.68 117.954 25.559 118.247 25.5701 118.567C25.5787 118.884 25.7481 119.227 26.0783 119.595C26.2886 119.83 26.4897 119.996 26.6815 120.095C26.8681 120.193 27.041 120.235 27.2001 120.221C27.3591 120.206 27.5013 120.145 27.6265 120.038C27.7323 119.953 27.8078 119.853 27.853 119.739C27.8929 119.624 27.9041 119.491 27.8864 119.34C27.866 119.191 27.8169 119.021 27.7391 118.829C27.6613 118.638 27.5536 118.425 27.416 118.189L26.947 117.37C26.6294 116.818 26.4031 116.305 26.2682 115.83C26.1332 115.356 26.0806 114.916 26.1106 114.51C26.1378 114.107 26.2424 113.735 26.4244 113.395C26.604 113.052 26.8521 112.736 27.1689 112.447C27.7224 111.955 28.3124 111.675 28.9389 111.605C29.5654 111.536 30.2057 111.665 30.8597 111.994C31.5114 112.32 32.1551 112.838 32.791 113.547C33.444 114.276 33.9061 115.008 34.1773 115.744C34.446 116.478 34.4912 117.195 34.3129 117.896C34.1293 118.597 33.6882 119.263 32.9896 119.894L31.0525 117.734C31.2967 117.49 31.4548 117.233 31.5266 116.962C31.5985 116.691 31.5865 116.411 31.4907 116.123C31.3924 115.832 31.2136 115.542 30.9544 115.253C30.7367 115.01 30.5245 114.834 30.3177 114.724C30.1109 114.614 29.9165 114.565 29.7342 114.576C29.552 114.586 29.3915 114.652 29.2527 114.771C29.1269 114.889 29.0529 115.031 29.0308 115.199C29.0036 115.366 29.0337 115.575 29.1211 115.826C29.2059 116.08 29.3536 116.393 29.5642 116.765L30.1325 117.761C30.6368 118.648 30.8927 119.474 30.9002 120.24C30.9026 121.005 30.5751 121.68 29.918 122.264C29.3884 122.744 28.7961 123.019 28.141 123.09C27.4808 123.16 26.8101 123.04 26.129 122.731C25.4455 122.419 24.8066 121.931 24.2123 121.268C23.6058 120.591 23.1944 119.905 22.9781 119.208C22.7619 118.511 22.7399 117.844 22.9121 117.208C23.0792 116.571 23.4357 116.005 23.9816 115.511L25.9333 117.688Z" fill="#1D1D1D"/>
<path d="M21.6168 114.16L19.5204 115.451L14.3907 107.121L16.4872 105.83L18.2624 108.713L25.7498 104.102L27.3291 106.666L19.8416 111.277L21.6168 114.16Z" fill="#1D1D1D"/>
<path d="M23.6071 100.411L13.1143 104.484L10.1793 96.9215L12.4746 96.0307L14.304 100.744L16.1075 100.044L14.4292 95.7201L16.7245 94.8293L18.4028 99.1535L20.2062 98.4535L18.3848 93.7604L20.6801 92.8696L23.6071 100.411Z" fill="#1D1D1D"/>
<path d="M7.10341 83.0923L18.183 81.1105L18.632 83.6207L13.527 88.6653L13.5386 88.7302L19.3597 87.689L19.8977 90.6969L8.81815 92.6787L8.3614 90.1252L13.4564 85.1495L13.4409 85.0629L7.64144 86.1003L7.10341 83.0923Z" fill="#1D1D1D"/>
<path d="M7.66616 63.6908L18.8606 64.8603L18.5957 67.3966L12.2916 70.827L12.2848 70.8926L18.1663 71.507L17.8488 74.5462L6.65426 73.3767L6.9238 70.7967L13.1991 67.4296L13.2083 67.3421L7.34866 66.7299L7.66616 63.6908Z" fill="#1D1D1D"/>
<path d="M17.0752 51.1099C18.267 51.4967 19.1972 52.0547 19.8657 52.784C20.5308 53.5121 20.9463 54.3385 21.1124 55.2629C21.275 56.1862 21.1991 57.1323 20.8847 58.1011C20.568 59.0769 20.071 59.8901 19.3937 60.5409C18.7141 61.187 17.8913 61.6095 16.9254 61.8083C15.9572 62.0026 14.8806 61.9074 13.6957 61.5229C12.5039 61.1361 11.5749 60.5803 10.9087 59.8557C10.2401 59.1264 9.824 58.3018 9.66029 57.382C9.49422 56.4575 9.56952 55.5074 9.8862 54.5316C10.2006 53.5628 10.6965 52.7531 11.3738 52.1023C12.0476 51.4504 12.8691 51.0256 13.8385 50.8279C14.8044 50.6291 15.8833 50.7231 17.0752 51.1099ZM16.1048 54.0999C15.4635 53.8918 14.8956 53.8019 14.4011 53.8302C13.9043 53.8538 13.4888 53.9944 13.1549 54.252C12.8185 54.5049 12.5723 54.8718 12.4163 55.3528C12.2602 55.8337 12.2434 56.277 12.366 56.6827C12.4862 57.0838 12.7399 57.4416 13.1271 57.756C13.5119 58.0657 14.0249 58.3247 14.6661 58.5328C15.3073 58.7409 15.8764 58.8331 16.3733 58.8095C16.8678 58.7812 17.2832 58.6406 17.6195 58.3877C17.9535 58.1301 18.1985 57.7609 18.3546 57.28C18.5107 56.7991 18.5286 56.358 18.4084 55.9569C18.2858 55.5512 18.0322 55.1935 17.6473 54.8837C17.2602 54.5693 16.746 54.308 16.1048 54.0999Z" fill="#1D1D1D"/>
<path d="M24.2887 48.826L13.0347 45.5019L14.8849 42.6405L21.5354 45.1084L21.5831 45.0346L16.759 39.7423L18.2152 37.4902L25.0394 39.73L25.0871 39.6561L20.0893 34.5919L21.9395 31.7306L29.5886 40.6297L28.001 43.0849L21.683 41.277L21.6352 41.3509L25.8763 46.3708L24.2887 48.826Z" fill="#1D1D1D"/>
<path d="M36.531 25.7892L38.0007 27.5406L33.9591 30.932L32.4895 29.1807L36.531 25.7892Z" fill="#1D1D1D"/>
<path d="M45.9939 25.9591L40.9255 15.9095L43.6539 14.5335L47.6135 22.3848L51.6766 20.3357L52.7853 22.534L45.9939 25.9591Z" fill="#1D1D1D"/>
<path d="M53.2544 10.404L57.0895 20.9859L54.2167 22.0271L50.3816 11.4452L53.2544 10.404Z" fill="#1D1D1D"/>
<path d="M62.8406 11.4674C62.7337 11.1158 62.5385 10.8659 62.2548 10.7179C61.9748 10.5691 61.5931 10.5475 61.1099 10.6531C60.8021 10.7204 60.558 10.8131 60.3775 10.9313C60.1999 11.0452 60.0782 11.1749 60.0126 11.3205C59.9469 11.4661 59.9299 11.6199 59.9615 11.7817C59.9833 11.9157 60.0328 12.0306 60.1099 12.1262C60.1899 12.2175 60.3001 12.2928 60.4406 12.3521C60.5803 12.4078 60.7524 12.4489 60.957 12.4755C61.1615 12.502 61.4003 12.5136 61.6734 12.5102L62.6176 12.5063C63.2543 12.5021 63.8122 12.5583 64.2915 12.6748C64.7708 12.7913 65.1795 12.9627 65.5177 13.1888C65.8551 13.4113 66.127 13.6856 66.3333 14.0118C66.5432 14.3372 66.6957 14.709 66.7908 15.127C66.9453 15.8508 66.8983 16.5024 66.6499 17.0817C66.4015 17.6611 65.973 18.1541 65.3643 18.5609C64.7592 18.967 63.9914 19.2717 63.0608 19.4751C62.1051 19.684 61.2402 19.7249 60.4661 19.5979C59.6955 19.47 59.0493 19.1556 58.5272 18.6546C58.008 18.1493 57.646 17.4371 57.4414 16.518L60.2762 15.8984C60.3677 16.2309 60.5136 16.4953 60.714 16.6915C60.9144 16.8877 61.1635 17.0152 61.4614 17.0738C61.7628 17.1317 62.1032 17.1192 62.4827 17.0362C62.8012 16.9666 63.0593 16.8689 63.2568 16.7433C63.4544 16.6176 63.5934 16.4728 63.6738 16.3089C63.7543 16.1451 63.7767 15.9733 63.7412 15.7935C63.7008 15.6261 63.6133 15.4915 63.4785 15.3897C63.3465 15.2835 63.1497 15.2065 62.888 15.1587C62.6255 15.1073 62.2804 15.0815 61.8528 15.0812L60.7059 15.0844C59.6861 15.086 58.8413 14.9012 58.1714 14.5301C57.5042 14.1546 57.0786 13.537 56.8944 12.6772C56.7382 11.98 56.791 11.329 57.0526 10.7243C57.317 10.1152 57.7518 9.59072 58.357 9.1509C58.9657 8.71031 59.705 8.39495 60.5748 8.20483C61.4625 8.0108 62.2627 7.99153 62.9755 8.147C63.6883 8.30248 64.2792 8.61212 64.7481 9.07593C65.2198 9.53538 65.5361 10.1244 65.6969 10.8431L62.8406 11.4674Z" fill="#1D1D1D"/>
<path d="M68.1759 9.4174L68.0904 6.95677L77.867 6.61704L77.9525 9.07767L74.5692 9.19524L74.8745 17.9832L71.8647 18.0878L71.5593 9.29984L68.1759 9.4174Z" fill="#1D1D1D"/>
<path d="M79.2516 17.9289L80.893 6.79384L88.9181 7.97677L88.559 10.4126L83.5569 9.67524L83.2748 11.5891L87.8637 12.2655L87.5046 14.7013L82.9158 14.0249L82.6336 15.9387L87.614 16.6729L87.2549 19.1087L79.2516 17.9289Z" fill="#1D1D1D"/>
<path d="M102.261 12.0226L98.5459 22.647L96.1388 21.8052L94.252 14.8807L94.1897 14.8589L92.2376 20.4409L89.3532 19.4322L93.0688 8.80774L95.5174 9.66406L97.3492 16.5461L97.4322 16.5751L99.3771 11.0138L102.261 12.0226Z" fill="#1D1D1D"/>
<path d="M118.8 21.9701L112.279 31.1442L110.201 29.6668L110.312 22.4907L110.258 22.4525L106.832 27.2724L104.341 25.5021L110.862 16.3281L112.977 17.8309L112.824 24.9509L112.896 25.0018L116.309 20.1998L118.8 21.9701Z" fill="#1D1D1D"/>
<path d="M125.132 36.2945C124.211 37.1445 123.269 37.6824 122.306 37.9084C121.345 38.1318 120.422 38.0897 119.534 37.7819C118.649 37.4717 117.862 36.9424 117.171 36.194C116.475 35.4402 116.009 34.6087 115.773 33.6995C115.542 32.7906 115.577 31.8663 115.876 30.9267C116.181 29.9874 116.791 29.0952 117.706 28.2502C118.627 27.4003 119.566 26.8623 120.524 26.6361C121.488 26.4102 122.41 26.451 123.292 26.7585C124.18 27.0662 124.971 27.597 125.667 28.3508C126.358 29.0993 126.822 29.928 127.057 30.8372C127.296 31.7438 127.264 32.6682 126.962 33.6103C126.663 34.5499 126.053 35.4446 125.132 36.2945ZM123 33.9846C123.495 33.5274 123.851 33.0762 124.069 32.6312C124.291 32.1863 124.372 31.7553 124.311 31.338C124.255 30.9209 124.056 30.5266 123.713 30.155C123.37 29.7835 122.991 29.5519 122.578 29.4601C122.169 29.3686 121.733 29.4147 121.269 29.5984C120.811 29.7823 120.334 30.1029 119.838 30.5602C119.343 31.0174 118.984 31.4685 118.761 31.9133C118.544 32.3584 118.463 32.7894 118.519 33.2065C118.58 33.6238 118.782 34.0182 119.125 34.3897C119.468 34.7613 119.844 34.9928 120.253 35.0843C120.666 35.1761 121.103 35.13 121.561 34.9461C122.025 34.7624 122.504 34.4419 123 33.9846Z" fill="#1D1D1D"/>
<path d="M123.712 43.8434L132.117 35.6542L133.707 38.6676L128.301 43.2607L128.342 43.3385L135.318 41.72L136.57 44.0919L131.278 48.9479L131.319 49.0257L138.181 47.1442L139.771 50.1577L128.268 52.4755L126.903 49.8898L131.571 45.2638L131.53 45.186L125.077 46.4292L123.712 43.8434Z" fill="#1D1D1D"/>
<path d="M137.782 65.8099L135.534 66.2297L134.566 61.0434L136.813 60.6236L137.782 65.8099Z" fill="#1D1D1D"/>
<path d="M75 72.619C74.3685 72.619 73.7629 72.8699 73.3164 73.3164C72.8699 73.7629 72.619 74.3685 72.619 75C72.619 75.6315 72.8699 76.2371 73.3164 76.6836C73.7629 77.1301 74.3685 77.381 75 77.381C75.6315 77.381 76.2371 77.1301 76.6836 76.6836C77.1301 76.2371 77.381 75.6315 77.381 75C77.381 74.3685 77.1301 73.7629 76.6836 73.3164C76.2371 72.8699 75.6315 72.619 75 72.619ZM75 85.7143C69.0476 85.7143 64.2857 80.9524 64.2857 75C64.2857 69.0476 69.0476 64.2857 75 64.2857C80.9524 64.2857 85.7143 69.0476 85.7143 75C85.7143 80.9524 80.9524 85.7143 75 85.7143ZM75 51.1905C71.8733 51.1905 68.7772 51.8063 65.8885 53.0029C62.9998 54.1994 60.375 55.9532 58.1641 58.1641C53.699 62.6293 51.1905 68.6853 51.1905 75C51.1905 81.3147 53.699 87.3707 58.1641 91.8359C60.375 94.0468 62.9998 95.8006 65.8885 96.9971C68.7772 98.1937 71.8733 98.8095 75 98.8095C81.3147 98.8095 87.3707 96.301 91.8359 91.8359C96.301 87.3707 98.8095 81.3147 98.8095 75C98.8095 71.8733 98.1937 68.7772 96.9971 65.8885C95.8006 62.9998 94.0468 60.375 91.8359 58.1641C89.625 55.9532 87.0002 54.1994 84.1115 53.0029C81.2228 51.8063 78.1267 51.1905 75 51.1905Z" fill="#1D1D1D"/>
</svg>
